<svg xmlns="http://www.w3.org/2000/svg" height="200px" viewBox="-100 -1100 1200 1200" width="200px" fill="#E0E3E2FF">
  <defs>
    <filter id="blur" x="-50%" y="-50%" width="200%" height="200%">
      <feGaussianBlur in="SourceGraphic" stdDeviation="2"/>
    </filter>
  </defs>
  <path d="M560-32v-60q125 0 212.5-87.32T860-392h60q0 75-28.5 140.5t-77 114q-48.5 48.5-114 77T560-32Zm0-120v-60q69 0 124.5-55.5T740-392h60q0 95-72.5 167.5T560-152ZM222-49q-11.67 0-23.33-4.5Q187-58 179-66L9-236q-8-8-12.5-19.56Q-8-267.11-8-278.67q0-12.33 4.43-23.21Q.87-312.75 9-321l151-151q17-17 42.5-17t42.5 17l64 64 37-37-64-64q-17-17.31-17-42.16Q265-576 282-593l75-75q17.38-17 42.69-17T442-668l64 64 37-37-64-64q-17-17.38-17-42.69T479-790l151-151q8.86-9 19.93-13.5T673-959q12 0 23 4t20 13l170 170q8.87 8.52 12.93 19.75 4.07 11.24 4.07 23.63 0 11.62-5 23.12-5 11.5-13 19.5L734-535q-23 23-42.5 23T649-535l-64-64-37 37 64 64q17 17.38 16.5 42.69T611-413l-74 74q-17.38 17-42.69 17T452-339l-64-64-37 37 64 64q17 17 17 42.5T415-217L264-66q-8.25 8.13-19.12 12.57Q234-49 222-49Zm0-59 54-54-170-170-54 54 170 170Zm97-97 54-54-170-170-54 54 170 170Zm176-176 74-74-170-170-74 74 170 170Zm197-197 54-54-170-170-54 54 170 170Zm97-97 54-54-170-170-54 54 170 170ZM447-503Z"/>
  <g>
    <circle cx="70" cy="-880" r="3" fill="#E0E3E2FF">
      <animateMotion dur="3s" repeatCount="indefinite" path="M0 0 v-20" />
      <animate attributeName="opacity" values="1;0" dur="3s" repeatCount="indefinite" />
    </circle>
    <circle cx="120" cy="-830" r="2" fill="#E0E3E2FF">
      <animateMotion dur="4s" repeatCount="indefinite" path="M0 0 v-30" />
      <animate attributeName="opacity" values="1;0" dur="4s" repeatCount="indefinite" />
    </circle>
    <circle cx="170" cy="-880" r="2.5" fill="#E0E3E2FF">
      <animateMotion dur="2.5s" repeatCount="indefinite" path="M0 0 v-25" />
      <animate attributeName="opacity" values="1;0" dur="2.5s" repeatCount="indefinite" />
    </circle>
    <circle cx="220" cy="-850" r="3" fill="#E0E3E2FF">
      <animateMotion dur="3.5s" repeatCount="indefinite" path="M0 0 v-22" />
      <animate attributeName="opacity" values="1;0" dur="3.5s" repeatCount="indefinite" />
    </circle>
    <circle cx="270" cy="-800" r="2" fill="#E0E3E2FF">
      <animateMotion dur="4.5s" repeatCount="indefinite" path="M0 0 v-28" />
      <animate attributeName="opacity" values="1;0" dur="4.5s" repeatCount="indefinite" />
    </circle>
    <circle cx="320" cy="-870" r="2.5" fill="#E0E3E2FF">
      <animateMotion dur="2.2s" repeatCount="indefinite" path="M0 0 v-24" />
      <animate attributeName="opacity" values="1;0" dur="2.2s" repeatCount="indefinite" />
    </circle>
    <circle cx="70" cy="-880" r="3" fill="#E0E3E2FF">
      <animateMotion dur="3s" repeatCount="indefinite" path="M0 0 v-20" />
      <animate attributeName="opacity" values="1;0" dur="3s" repeatCount="indefinite" />
    </circle>
    <circle cx="120" cy="-830" r="2" fill="#E0E3E2FF">
      <animateMotion dur="4s" repeatCount="indefinite" path="M0 0 v-30" />
      <animate attributeName="opacity" values="1;0" dur="4s" repeatCount="indefinite" />
    </circle>
    <circle cx="170" cy="-880" r="2.5" fill="#E0E3E2FF">
      <animateMotion dur="2.5s" repeatCount="indefinite" path="M0 0 v-25" />
      <animate attributeName="opacity" values="1;0" dur="2.5s" repeatCount="indefinite" />
    </circle>
    <circle cx="220" cy="-850" r="3" fill="#E0E3E2FF">
      <animateMotion dur="3.5s" repeatCount="indefinite" path="M0 0 v-22" />
      <animate attributeName="opacity" values="1;0" dur="3.5s" repeatCount="indefinite" />
    </circle>
    <circle cx="270" cy="-800" r="2" fill="#E0E3E2FF">
      <animateMotion dur="4.5s" repeatCount="indefinite" path="M0 0 v-28" />
      <animate attributeName="opacity" values="1;0" dur="4.5s" repeatCount="indefinite" />
    </circle>
    <circle cx="320" cy="-870" r="2.5" fill="#E0E3E2FF">
      <animateMotion dur="2.2s" repeatCount="indefinite" path="M0 0 v-24" />
      <animate attributeName="opacity" values="1;0" dur="2.2s" repeatCount="indefinite" />
    </circle>
    <!-- Added Debris -->
    <circle cx="370" cy="-890" r="5" fill="#E0E3E2FF">
      <animateMotion dur="3.2s" repeatCount="indefinite" path="M0 0 v-20" />
      <animate attributeName="opacity" values="1;0" dur="3.2s" repeatCount="indefinite" />
    </circle>
    <circle cx="420" cy="-820" r="8.5" fill="#E0E3E2FF">
      <animateMotion dur="4.1s" repeatCount="indefinite" path="M0 0 v-30" />
      <animate attributeName="opacity" values="1;0" dur="4.1s" repeatCount="indefinite" />
    </circle>
    <circle cx="470" cy="-850" r="12" fill="#E0E3E2FF">
      <animateMotion dur="2.8s" repeatCount="indefinite" path="M0 0 v-25" />
      <animate attributeName="opacity" values="1;0" dur="2.8s" repeatCount="indefinite" />
    </circle>
    <circle cx="520" cy="-860" r="2" fill="#E0E3E2FF">
      <animateMotion dur="3.6s" repeatCount="indefinite" path="M0 0 v-22" />
      <animate attributeName="opacity" values="1;0" dur="3.6s" repeatCount="indefinite" />
    </circle>
    <circle cx="570" cy="-810" r="2.5" fill="#E0E3E2FF">
      <animateMotion dur="4.3s" repeatCount="indefinite" path="M0 0 v-28" />
      <animate attributeName="opacity" values="1;0" dur="4.3s" repeatCount="indefinite" />
    </circle>
    <circle cx="620" cy="-870" r="3" fill="#E0E3E2FF">
      <animateMotion dur="2.7s" repeatCount="indefinite" path="M0 0 v-24" />
      <animate attributeName="opacity" values="1;0" dur="2.7s" repeatCount="indefinite" />
    </circle>
    <circle cx="670" cy="-890" r="2" fill="#E0E3E2FF">
      <animate attributeName="opacity" values="1;0" dur="3.1s" repeatCount="indefinite" />
    </circle>
    <circle cx="720" cy="-830" r="2.5" fill="#E0E3E2FF">
      <animate attributeName="opacity" values="1;0" dur="4.4s" repeatCount="indefinite" />
    </circle>
    <circle cx="770" cy="-850" r="3" fill="#E0E3E2FF">
      <animate attributeName="opacity" values="1;0" dur="2.6s" repeatCount="indefinite" />
    </circle>
    <circle cx="820" cy="-860" r="2" fill="#E0E3E2FF">
      <animate attributeName="opacity" values="1;0" dur="3.3s" repeatCount="indefinite" />
    </circle>
    <circle cx="870" cy="-810" r="2.5" fill="#E0E3E2FF">
      <animate attributeName="opacity" values="1;0" dur="4.6s" repeatCount="indefinite" />
    </circle>
    <circle cx="920" cy="-870" r="7" fill="#E0E3E2FF">
      <animate attributeName="opacity" values="1;0" dur="2.9s" repeatCount="indefinite" />
    </circle>
    <circle cx="20" cy="-87" r="5.6" fill="#E0E3E2FF">
      <animate attributeName="opacity" values="1;0" dur="2.9s" repeatCount="indefinite" />
    </circle>
    <circle cx="60" cy="-654" r="8.6" fill="#E0E3E2FF">
      <animate attributeName="opacity" values="1;0" dur="3.2s" repeatCount="indefinite" />
    </circle>
    <circle cx="321" cy="-724" r="3.6" fill="#E0E3E2FF">
      <animate attributeName="opacity" values="1;0" dur="6.2s" repeatCount="indefinite" />
    </circle>
    <circle cx="203" cy="-554" r="10" fill="#E0E3E2FF">
      <animate attributeName="opacity" values="1;0" dur="2.8s" repeatCount="indefinite" />
    </circle>
    <circle cx="189" cy="-689" r="4.5" fill="#E0E3E2FF">
      <animate attributeName="opacity" values="1;0" dur="3.9s" repeatCount="indefinite" />
    </circle>
    <circle cx="329" cy="-6" r="8.9" fill="#E0E3E2FF">
      <animate attributeName="opacity" values="1;0" dur="3.7s" repeatCount="indefinite" />
    </circle>
    <circle cx="833" cy="-484" r="9.6" fill="#E0E3E2FF">

      <animate attributeName="opacity" values="1;0" dur="3.2s" repeatCount="indefinite" />
    </circle>
    <circle cx="660" cy="-654" r="8.6" fill="#E0E3E2FF">
      <animate attributeName="opacity" values="1;0" dur="4.7s" repeatCount="indefinite" />
    </circle>
    <circle cx="630" cy="-354" r="6.8" fill="#E0E3E2FF">
      <animate attributeName="opacity" values="1;0" dur="5.3s" repeatCount="indefinite" />
    </circle>
    <circle cx="450" cy="-54" r="3.6" fill="#E0E3E2FF">
      <animate attributeName="opacity" values="1;0" dur="1.7s" repeatCount="indefinite" />
    </circle>
    <circle cx="476" cy="-143" r="12.6" fill="#E0E3E2FF">
      <animate attributeName="opacity" values="1;0" dur="5.7s" repeatCount="indefinite" />
    </circle>
    <circle cx="860" cy="-564" r="9" fill="#E0E3E2FF">
      <animate attributeName="opacity" values="1;0" dur="3.4s" repeatCount="indefinite" />
    </circle>
  </g>
  <animateTransform attributeName="transform" attributeType="XML" type="translate" values="0 -10; 0 10; 0 -10" dur="12s" repeatCount="indefinite"/>
  <animateTransform attributeName="transform" attributeType="XML" type="rotate" values="0 480 480; 1 480 480; -1 480 480; 0 480 480" dur="12s" repeatCount="indefinite" additive="sum"/>
</svg>
